<?xml version="1.0" encoding="UTF-8" standalone="no"?>
<svg
   version="1.1"
   width="45"
   height="45"
   id="svg11"
   sodipodi:docname="black-rook-pawn.svg"
   inkscape:version="1.3.2 (091e20ef0f, 2023-11-25, custom)"
   xmlns:inkscape="http://www.inkscape.org/namespaces/inkscape"
   xmlns:sodipodi="http://sodipodi.sourceforge.net/DTD/sodipodi-0.dtd"
   xmlns="http://www.w3.org/2000/svg"
   xmlns:svg="http://www.w3.org/2000/svg">
  <defs
     id="defs11">
    <clipPath
       clipPathUnits="userSpaceOnUse"
       id="clipPath23">
      <rect
         style="fill:none;fill-rule:evenodd;stroke:#ff0000;stroke-width:1.5;stroke-linecap:square;stroke-linejoin:bevel"
         id="rect23"
         width="22.5"
         height="45"
         x="0"
         y="-0.30000001" />
    </clipPath>
    <clipPath
       clipPathUnits="userSpaceOnUse"
       id="clipPath24">
      <rect
         style="fill:none;fill-rule:evenodd;stroke:#ff0000;stroke-width:1.5;stroke-linecap:square;stroke-linejoin:bevel"
         id="rect24"
         width="22.5"
         height="45"
         x="22.5"
         y="-0.30000001" />
    </clipPath>
    <clipPath
       clipPathUnits="userSpaceOnUse"
       id="clipPath3">
      <rect
         style="fill:none;fill-rule:evenodd;stroke:#ff0000;stroke-width:1.5;stroke-linecap:square;stroke-linejoin:bevel"
         id="rect4"
         width="22.5"
         height="45"
         x="22.5"
         y="0" />
    </clipPath>
  </defs>
  <sodipodi:namedview
     id="namedview11"
     pagecolor="#505050"
     bordercolor="#ffffff"
     borderopacity="1"
     inkscape:showpageshadow="0"
     inkscape:pageopacity="0"
     inkscape:pagecheckerboard="1"
     inkscape:deskcolor="#d1d1d1"
     inkscape:zoom="15.822222"
     inkscape:cx="22.531601"
     inkscape:cy="22.5"
     inkscape:window-width="1920"
     inkscape:window-height="1008"
     inkscape:window-x="0"
     inkscape:window-y="0"
     inkscape:window-maximized="1"
     inkscape:current-layer="svg11" />
  <g
     style="opacity:1; fill:#000000; fill-opacity:1; fill-rule:evenodd; stroke:#000000; stroke-width:1.5; stroke-linecap:round;stroke-linejoin:round;stroke-miterlimit:4; stroke-dasharray:none; stroke-opacity:1;"
     transform="translate(0,0.3)"
     id="left"
     clip-path="url(#clipPath23)">
    <path
       d="M 9,39 L 36,39 L 36,36 L 9,36 L 9,39 z "
       style="stroke-linecap:butt;"
       id="path12" />
    <path
       d="M 12.5,32 L 14,29.5 L 31,29.5 L 32.5,32 L 12.5,32 z "
       style="stroke-linecap:butt;"
       id="path13" />
    <path
       d="M 12,36 L 12,32 L 33,32 L 33,36 L 12,36 z "
       style="stroke-linecap:butt;"
       id="path14" />
    <path
       d="M 14,29.5 L 14,16.5 L 31,16.5 L 31,29.5 L 14,29.5 z "
       style="stroke-linecap:butt;stroke-linejoin:miter;"
       id="path15" />
    <path
       d="M 14,16.5 L 11,14 L 34,14 L 31,16.5 L 14,16.5 z "
       style="stroke-linecap:butt;"
       id="path16" />
    <path
       d="M 11,14 L 11,9 L 15,9 L 15,11 L 20,11 L 20,9 L 25,9 L 25,11 L 30,11 L 30,9 L 34,9 L 34,14 L 11,14 z "
       style="stroke-linecap:butt;"
       id="path18" />
    <path
       d="M 12,35.5 L 33,35.5 L 33,35.5"
       style="fill:none; stroke:#ffffff; stroke-width:1; stroke-linejoin:miter;"
       id="path19" />
    <path
       d="M 13,31.5 L 32,31.5"
       style="fill:none; stroke:#ffffff; stroke-width:1; stroke-linejoin:miter;"
       id="path20" />
    <path
       d="M 14,29.5 L 31,29.5"
       style="fill:none; stroke:#ffffff; stroke-width:1; stroke-linejoin:miter;"
       id="path21" />
    <path
       d="M 14,16.5 L 31,16.5"
       style="fill:none; stroke:#ffffff; stroke-width:1; stroke-linejoin:miter;"
       id="path22" />
    <path
       d="M 11,14 L 34,14"
       style="fill:none; stroke:#ffffff; stroke-width:1; stroke-linejoin:miter;"
       id="path23" />
  </g>
  <path
     d="m 22.5,9 c -2.21,0 -4,1.79 -4,4 0,0.89 0.29,1.71 0.78,2.38 C 17.33,16.5 16,18.59 16,21 c 0,2.03 0.94,3.84 2.41,5.03 C 15.41,27.09 11,31.58 11,39.5 H 34 C 34,31.58 29.59,27.09 26.59,26.03 28.06,24.84 29,23.03 29,21 29,18.59 27.67,16.5 25.72,15.38 26.21,14.71 26.5,13.89 26.5,13 c 0,-2.21 -1.79,-4 -4,-4 z"
     style="fill:#000000;fill-opacity:1;fill-rule:nonzero;stroke:#000000;stroke-width:1.5;stroke-linecap:round;stroke-linejoin:miter;stroke-miterlimit:4;stroke-dasharray:none;stroke-opacity:1"
     id="right"
     clip-path="url(#clipPath3)" />
  <path
     style="fill:none;stroke:#00ff00;stroke-width:1.42701;stroke-linecap:butt;stroke-linejoin:miter;stroke-dasharray:none;stroke-opacity:1"
     d="M 22.5,8.55 V 40.004462"
     id="path17" />
</svg>
