<?xml version="1.0" encoding="UTF-8" standalone="no"?>
<svg
   version="1.1"
   width="45"
   height="45"
   id="svg7"
   sodipodi:docname="white-rook-rook.svg"
   inkscape:version="1.3.2 (091e20ef0f, 2023-11-25, custom)"
   xmlns:inkscape="http://www.inkscape.org/namespaces/inkscape"
   xmlns:sodipodi="http://sodipodi.sourceforge.net/DTD/sodipodi-0.dtd"
   xmlns="http://www.w3.org/2000/svg"
   xmlns:svg="http://www.w3.org/2000/svg">
  <defs
     id="defs7">
    <clipPath
       clipPathUnits="userSpaceOnUse"
       id="right-half-clip">
      <path
         style="fill:none;fill-rule:evenodd;stroke:#f20000;stroke-width:0.572223;stroke-linecap:square;stroke-linejoin:bevel;stroke-dasharray:none"
         id="path19-3"
         width="26.876888"
         height="59.159763"
         x="-4.6629992"
         y="-4.3778086"
         sodipodi:type="rect"
         transform="matrix(1.2410093,0,0,1.1200342,27.49647,-4.3360818)"
         d="m -4.6629992,-4.3774627 c 2.7629512,-4.3034869 5.05259139,-4.3142398 7.8224461,0 2.7614971,4.30122228 5.0504613,4.3146579 7.8205841,0 2.762951,-4.3034869 5.052592,-4.3142398 7.822446,0 1.200307,1.86956 2.311339,2.9290394 3.411412,3.1751284 -1.378569,0.37233042 -1.381112,0.72612233 -3.46e-4,1.23369833 4.303487,2.76295107 4.31424,5.05259137 0,7.82244607 -4.301222,2.7614969 -4.314658,5.0504609 0,7.8205839 4.303487,2.762952 4.31424,5.052592 0,7.822447 -4.301222,2.761497 -4.314658,5.050461 0,7.820584 4.303487,2.762951 4.31424,5.052591 0,7.822446 -4.301222,2.761497 -4.314658,5.050461 0,7.820584 4.302997,2.762637 4.314238,5.05207 0.0015,7.8215 -6.92e-4,-1.15e-4 -0.0014,-2.31e-4 -0.0021,-3.46e-4 -2.761497,-4.301222 -5.050461,-4.314658 -7.820584,0 -2.762951,4.303487 -5.0525912,4.31424 -7.822446,0 -2.7614971,-4.301222 -5.0504612,-4.314658 -7.8205843,0 -1.2007469,1.870246 -2.3121009,2.929735 -3.4123269,3.17582 -1.3786548,-2.489915 -1.3804832,-4.960994 3.46e-4,-7.585594 4.3012222,-2.761497 4.31465782,-5.050461 0,-7.820584 -4.303487,-2.762951 -4.3142399,-5.052591 0,-7.822446 4.3012222,-2.761497 4.31465782,-5.050461 0,-7.820584 -4.303487,-2.762951 -4.3142399,-5.052592 0,-7.822446 4.3012222,-2.761497 4.31465782,-5.050462 0,-7.820585 -4.303487,-2.7629508 -4.3142399,-5.0525911 0,-7.8224458 4.3011069,-2.76137129 4.31442722,-5.0502096 -3.47e-4,-7.8202069 z"
         inkscape:path-effect="#path-effect17-9" />
    </clipPath>
    <inkscape:path-effect
       effect="skeletal"
       id="path-effect17-9"
       is_visible="true"
       lpeversion="1"
       pattern="#path15"
       copytype="repeated_stretched"
       prop_scale="1"
       scale_y_rel="false"
       spacing="0"
       normal_offset="0"
       tang_offset="0"
       prop_units="false"
       vertical_pattern="false"
       hide_knot="true"
       fuse_tolerance="6" />
    <clipPath
       clipPathUnits="userSpaceOnUse"
       id="clipPath51">
      <rect
         style="fill:none;fill-rule:evenodd;stroke:#f20000;stroke-width:1.5;stroke-linecap:square;stroke-linejoin:bevel;stroke-dasharray:none;stroke-opacity:1"
         id="rect51"
         width="28.170233"
         height="53.482613"
         x="22.335115"
         y="-5.2838426" />
    </clipPath>
    <clipPath
       clipPathUnits="userSpaceOnUse"
       id="clipPath58">
      <rect
         style="fill:none;fill-rule:evenodd;stroke:#f20000;stroke-width:1.5;stroke-linecap:square;stroke-linejoin:bevel;stroke-dasharray:none;stroke-opacity:1"
         id="rect58"
         width="28.170233"
         height="53.482613"
         x="-5.8351169"
         y="-5.2838426" />
    </clipPath>
  </defs>
  <sodipodi:namedview
     id="namedview7"
     pagecolor="#505050"
     bordercolor="#ffffff"
     borderopacity="1"
     inkscape:showpageshadow="0"
     inkscape:pageopacity="0"
     inkscape:pagecheckerboard="1"
     inkscape:deskcolor="#d1d1d1"
     inkscape:zoom="16"
     inkscape:cx="20.3125"
     inkscape:cy="22.125"
     inkscape:window-width="1600"
     inkscape:window-height="1172"
     inkscape:window-x="0"
     inkscape:window-y="0"
     inkscape:window-maximized="1"
     inkscape:current-layer="svg7" />
  <g
     style="opacity:1;fill:#ffffff;fill-opacity:1;fill-rule:evenodd;stroke:#000000;stroke-width:1.5;stroke-linecap:round;stroke-linejoin:round;stroke-miterlimit:4;stroke-dasharray:none;stroke-opacity:1"
     transform="translate(0,0.3)"
     id="left"
     clip-path="url(#clipPath58)">
    <path
       d="M 9,39 H 36 V 36 H 9 Z"
       style="stroke-linecap:butt"
       id="path1" />
    <path
       d="m 12,36 v -4 h 21 v 4 z"
       style="stroke-linecap:butt"
       id="path2" />
    <path
       d="M 11,14 V 9 h 4 v 2 h 5 V 9 h 5 v 2 h 5 V 9 h 4 v 5"
       style="stroke-linecap:butt"
       id="path3" />
    <path
       d="m 34,14 -3,3 H 14 l -3,-3"
       id="path4" />
    <path
       d="M 31,17 V 29.5 H 14 V 17"
       style="stroke-linecap:butt;stroke-linejoin:miter"
       id="path5" />
    <path
       d="m 31,29.5 1.5,2.5 h -20 L 14,29.5"
       id="path6" />
    <path
       d="M 11,14 H 34"
       style="fill:none;stroke:#000000;stroke-linejoin:miter"
       id="path7" />
  </g>
  <g
     style="opacity:1;fill:#ffffff;fill-opacity:1;fill-rule:evenodd;stroke:#000000;stroke-width:1.5;stroke-linecap:round;stroke-linejoin:round;stroke-miterlimit:4;stroke-dasharray:none;stroke-opacity:1"
     transform="translate(0,0.3)"
     id="right"
     clip-path="url(#clipPath51)">
    <path
       d="M 9,39 H 36 V 36 H 9 Z"
       style="stroke-linecap:butt"
       id="path8" />
    <path
       d="m 12,36 v -4 h 21 v 4 z"
       style="stroke-linecap:butt"
       id="path9" />
    <path
       d="M 11,14 V 9 h 4 v 2 h 5 V 9 h 5 v 2 h 5 V 9 h 4 v 5"
       style="stroke-linecap:butt"
       id="path10" />
    <path
       d="m 34,14 -3,3 H 14 l -3,-3"
       id="path11" />
    <path
       d="M 31,17 V 29.5 H 14 V 17"
       style="stroke-linecap:butt;stroke-linejoin:miter"
       id="path12" />
    <path
       d="m 31,29.5 1.5,2.5 h -20 L 14,29.5"
       id="path13" />
    <path
       d="M 11,14 H 34"
       style="fill:none;stroke:#000000;stroke-linejoin:miter"
       id="path14" />
  </g>
  <path
     style="fill:none;stroke:#ff0000;stroke-width:1.51818;stroke-linecap:butt;stroke-linejoin:miter;stroke-dasharray:none;stroke-opacity:1"
     d="m 22.335116,8.55 v 31.5"
     id="path59" />
</svg>
