<?xml version="1.0" encoding="UTF-8" standalone="no"?>
<svg
   version="1.1"
   width="45"
   height="45"
   id="svg4"
   sodipodi:docname="white-knight-pawn.svg"
   inkscape:version="1.3.2 (091e20ef0f, 2023-11-25, custom)"
   xmlns:inkscape="http://www.inkscape.org/namespaces/inkscape"
   xmlns:sodipodi="http://sodipodi.sourceforge.net/DTD/sodipodi-0.dtd"
   xmlns="http://www.w3.org/2000/svg"
   xmlns:svg="http://www.w3.org/2000/svg">
  <defs
     id="defs4">
    <clipPath
       clipPathUnits="userSpaceOnUse"
       id="clipPath12">
      <rect
         style="fill:none;fill-rule:evenodd;stroke:#ff0000;stroke-width:1.5;stroke-linecap:square;stroke-linejoin:bevel"
         id="rect12"
         width="22.5"
         height="45"
         x="1.3825914"
         y="-0.30000001" />
    </clipPath>
    <clipPath
       clipPathUnits="userSpaceOnUse"
       id="clipPath51">
      <rect
         style="fill:none;fill-rule:evenodd;stroke:#f20000;stroke-width:1.5;stroke-linecap:square;stroke-linejoin:bevel;stroke-dasharray:none;stroke-opacity:1"
         id="rect51"
         width="28.170233"
         height="53.482613"
         x="22.335115"
         y="-5.2838426" />
    </clipPath>
    <clipPath
       clipPathUnits="userSpaceOnUse"
       id="clipPath4">
      <rect
         style="display:none;fill:none;fill-rule:evenodd;stroke:#ff0000;stroke-width:1.5;stroke-linecap:square;stroke-linejoin:bevel"
         id="rect4"
         width="22.5"
         height="45"
         x="0"
         y="0"
         d="M 0,0 H 22.5 V 45 H 0 Z" />
      <path
         id="lpe_path-effect4"
         style="fill:none;fill-rule:evenodd;stroke:#ff0000;stroke-width:1.5;stroke-linecap:square;stroke-linejoin:bevel"
         class="powerclip"
         d="m 5.25,3.25 h 34.5 v 42 H 5.25 Z M 0,0 V 45 H 22.5 V 0 Z" />
    </clipPath>
    <inkscape:path-effect
       effect="powerclip"
       id="path-effect4"
       is_visible="true"
       lpeversion="1"
       inverse="true"
       flatten="false"
       hide_clip="false"
       message="Use fill-rule evenodd on &lt;b&gt;fill and stroke&lt;/b&gt; dialog if no flatten result after convert clip to paths." />
  </defs>
  <sodipodi:namedview
     id="namedview4"
     pagecolor="#505050"
     bordercolor="#ffffff"
     borderopacity="1"
     inkscape:showpageshadow="0"
     inkscape:pageopacity="0"
     inkscape:pagecheckerboard="1"
     inkscape:deskcolor="#d1d1d1"
     inkscape:zoom="12.49222"
     inkscape:cx="22.89425"
     inkscape:cy="25.615944"
     inkscape:window-width="1920"
     inkscape:window-height="1008"
     inkscape:window-x="0"
     inkscape:window-y="0"
     inkscape:window-maximized="1"
     inkscape:current-layer="svg4" />
  <g
     style="opacity:1;fill:none;fill-opacity:1;fill-rule:evenodd;stroke:#000000;stroke-width:1.5;stroke-linecap:round;stroke-linejoin:round;stroke-miterlimit:4;stroke-dasharray:none;stroke-opacity:1"
     transform="translate(-2.1325914,0.254462)"
     id="left"
     clip-path="url(#clipPath12)">
    <path
       d="m 22,10 c 10.5,1 16.5,8 16,29 H 15 c 0,-9 10,-6.5 8,-21"
       style="fill:#ffffff;stroke:#000000"
       id="path1" />
    <path
       d="m 24,18 c 0.38,2.91 -5.55,7.37 -8,9 -3,2 -2.82,4.34 -5,4 -1.042,-0.94 1.41,-3.04 0,-3 -1,0 0.19,1.23 -1,2 -1,0 -4.003,1 -4,-4 0,-2 6,-12 6,-12 0,0 1.89,-1.9 2,-3.5 -0.73,-0.994 -0.5,-2 -0.5,-3 1,-1 3,2.5 3,2.5 h 2 c 0,0 0.78,-1.992 2.5,-3 1,0 1,3 1,3"
       style="fill:#ffffff;stroke:#000000"
       id="path2" />
    <path
       d="m 9.5,25.5 a 0.5,0.5 0 1 1 -1,0 0.5,0.5 0 1 1 1,0 z"
       style="fill:#000000;stroke:#000000"
       id="path3" />
    <path
       d="m 15,15.5 a 0.5,1.5 0 1 1 -1,0 0.5,1.5 0 1 1 1,0 z"
       transform="matrix(0.866,0.5,-0.5,0.866,9.693,-5.173)"
       style="fill:#000000;stroke:#000000"
       id="path4" />
  </g>
  <path
     d="m 22.5,9 c -2.21,0 -4,1.79 -4,4 0,0.89 0.29,1.71 0.78,2.38 C 17.33,16.5 16,18.59 16,21 c 0,2.03 0.94,3.84 2.41,5.03 C 15.41,27.09 11,31.58 11,39.5 H 34 C 34,31.58 29.59,27.09 26.59,26.03 28.06,24.84 29,23.03 29,21 29,18.59 27.67,16.5 25.72,15.38 26.21,14.71 26.5,13.89 26.5,13 c 0,-2.21 -1.79,-4 -4,-4 z"
     style="fill:#ffffff;fill-opacity:1;fill-rule:nonzero;stroke:#000000;stroke-width:1.5;stroke-linecap:round;stroke-linejoin:miter;stroke-miterlimit:4;stroke-dasharray:none;stroke-opacity:1"
     id="right"
     clip-path="url(#clipPath4)"
     inkscape:path-effect="#path-effect4"
     inkscape:original-d="m 22.5,9 c -2.21,0 -4,1.79 -4,4 0,0.89 0.29,1.71 0.78,2.38 C 17.33,16.5 16,18.59 16,21 c 0,2.03 0.94,3.84 2.41,5.03 C 15.41,27.09 11,31.58 11,39.5 H 34 C 34,31.58 29.59,27.09 26.59,26.03 28.06,24.84 29,23.03 29,21 29,18.59 27.67,16.5 25.72,15.38 26.21,14.71 26.5,13.89 26.5,13 c 0,-2.21 -1.79,-4 -4,-4 z" />
  <path
     style="fill:none;stroke:#ff0000;stroke-width:1.4338;stroke-linecap:butt;stroke-linejoin:miter;stroke-dasharray:none;stroke-opacity:1"
     d="M 22.5,8.25 V 40.004462"
     id="path17" />
</svg>
