<?xml version="1.0" encoding="UTF-8" standalone="no"?>
<svg
   version="1.1"
   width="45"
   height="45"
   id="svg8"
   sodipodi:docname="white-queen-bishop.svg"
   inkscape:version="1.3.2 (091e20ef0f, 2023-11-25, custom)"
   xmlns:inkscape="http://www.inkscape.org/namespaces/inkscape"
   xmlns:sodipodi="http://sodipodi.sourceforge.net/DTD/sodipodi-0.dtd"
   xmlns="http://www.w3.org/2000/svg"
   xmlns:svg="http://www.w3.org/2000/svg">
  <defs
     id="defs8">
    <clipPath
       clipPathUnits="userSpaceOnUse"
       id="clipPath15">
      <rect
         style="fill:none;fill-rule:evenodd;stroke:#ff0000;stroke-width:1.5;stroke-linecap:square;stroke-linejoin:bevel"
         id="rect15"
         width="22.5"
         height="45"
         x="0"
         y="0" />
    </clipPath>
    <clipPath
       clipPathUnits="userSpaceOnUse"
       id="clipPath17">
      <rect
         style="fill:none;fill-rule:evenodd;stroke:#ff0000;stroke-width:1.5;stroke-linecap:square;stroke-linejoin:bevel"
         id="rect17"
         width="22.5"
         height="45"
         x="22.5"
         y="0" />
    </clipPath>
    <clipPath
       clipPathUnits="userSpaceOnUse"
       id="clipPath51">
      <rect
         style="fill:none;fill-rule:evenodd;stroke:#f20000;stroke-width:1.5;stroke-linecap:square;stroke-linejoin:bevel;stroke-dasharray:none;stroke-opacity:1"
         id="rect51"
         width="28.170233"
         height="53.482613"
         x="22.335115"
         y="-5.2838426" />
    </clipPath>
    <clipPath
       clipPathUnits="userSpaceOnUse"
       id="clipPath9">
      <rect
         style="display:none;fill:none;fill-rule:evenodd;stroke:#ff0000;stroke-width:1.5;stroke-linecap:square;stroke-linejoin:bevel"
         id="rect10"
         width="22.5"
         height="45"
         x="0"
         y="-0.60000002" />
      <path
         id="lpe_path-effect10"
         style="fill:none;fill-rule:evenodd;stroke:#ff0000;stroke-width:1.5;stroke-linecap:square;stroke-linejoin:bevel"
         class="powerclip"
         d="M 0.25002114,-0.24999891 H 44.749979 V 44.566285 H 0.25002114 Z M 0,-0.60000002 V 44.4 H 22.5 V -0.60000002 Z" />
    </clipPath>
    <inkscape:path-effect
       effect="powerclip"
       id="path-effect10"
       is_visible="true"
       lpeversion="1"
       inverse="true"
       flatten="false"
       hide_clip="false"
       message="Use fill-rule evenodd on &lt;b&gt;fill and stroke&lt;/b&gt; dialog if no flatten result after convert clip to paths." />
  </defs>
  <sodipodi:namedview
     id="namedview8"
     pagecolor="#505050"
     bordercolor="#ffffff"
     borderopacity="1"
     inkscape:showpageshadow="0"
     inkscape:pageopacity="0"
     inkscape:pagecheckerboard="1"
     inkscape:deskcolor="#d1d1d1"
     inkscape:zoom="12.49222"
     inkscape:cx="21.253228"
     inkscape:cy="25.055595"
     inkscape:window-width="1600"
     inkscape:window-height="1172"
     inkscape:window-x="0"
     inkscape:window-y="0"
     inkscape:window-maximized="1"
     inkscape:current-layer="svg8" />
  <g
     style="fill:#ffffff;stroke:#000000;stroke-width:1.5;stroke-linejoin:round"
     id="left"
     clip-path="url(#clipPath15)">
    <path
       d="M 9,26 C 17.5,24.5 30,24.5 36,26 L 38.5,13.5 L 31,25 L 30.7,10.9 L 25.5,24.5 L 22.5,10 L 19.5,24.5 L 14.3,10.9 L 14,25 L 6.5,13.5 L 9,26 z"
       id="path1" />
    <path
       d="M 9,26 C 9,28 10.5,28 11.5,30 C 12.5,31.5 12.5,31 12,33.5 C 10.5,34.5 11,36 11,36 C 9.5,37.5 11,38.5 11,38.5 C 17.5,39.5 27.5,39.5 34,38.5 C 34,38.5 35.5,37.5 34,36 C 34,36 34.5,34.5 33,33.5 C 32.5,31 32.5,31.5 33.5,30 C 34.5,28 36,28 36,26 C 27.5,24.5 17.5,24.5 9,26 z"
       id="path2" />
    <path
       d="M 11.5,30 C 15,29 30,29 33.5,30"
       style="fill:none"
       id="path3" />
    <path
       d="M 12,33.5 C 18,32.5 27,32.5 33,33.5"
       style="fill:none"
       id="path4" />
    <circle
       cx="6"
       cy="12"
       r="2"
       id="circle4" />
    <circle
       cx="14"
       cy="9"
       r="2"
       id="circle5" />
    <circle
       cx="22.5"
       cy="8"
       r="2"
       id="circle6" />
    <circle
       cx="31"
       cy="9"
       r="2"
       id="circle7" />
    <circle
       cx="39"
       cy="12"
       r="2"
       id="circle8" />
  </g>
  <g
     style="fill:none;fill-opacity:1;fill-rule:evenodd;stroke:#000000;stroke-width:1.5;stroke-linecap:round;stroke-linejoin:round;stroke-miterlimit:4;stroke-dasharray:none;stroke-opacity:1"
     transform="translate(0,0.6)"
     id="right"
     clip-path="url(#clipPath9)"
     inkscape:path-effect="#path-effect10">
    <g
       style="fill:#ffffff;stroke:#000000;stroke-linecap:butt"
       id="g7">
      <path
         d="m 9,36 c 3.39,-0.97 10.11,0.43 13.5,-2 3.39,2.43 10.11,1.03 13.5,2 0,0 1.65,0.54 3,2 -0.68,0.97 -1.65,0.99 -3,0.5 -3.39,-0.97 -10.11,0.46 -13.5,-1 C 19.11,38.96 12.39,37.53 9,38.5 7.65,38.99 6.68,38.97 6,38 7.35,36.54 9,36 9,36 Z"
         id="path5"
         inkscape:original-d="m 9,36 c 3.39,-0.97 10.11,0.43 13.5,-2 3.39,2.43 10.11,1.03 13.5,2 0,0 1.65,0.54 3,2 -0.68,0.97 -1.65,0.99 -3,0.5 -3.39,-0.97 -10.11,0.46 -13.5,-1 C 19.11,38.96 12.39,37.53 9,38.5 7.65,38.99 6.68,38.97 6,38 7.35,36.54 9,36 9,36 Z" />
      <path
         d="m 15,32 c 2.5,2.5 12.5,2.5 15,0 0.5,-1.5 0,-2 0,-2 0,-2.5 -2.5,-4 -2.5,-4 5.5,-1.5 6,-11.5 -5,-15.5 -11,4 -10.5,14 -5,15.5 0,0 -2.5,1.5 -2.5,4 0,0 -0.5,0.5 0,2 z"
         id="path6"
         inkscape:original-d="m 15,32 c 2.5,2.5 12.5,2.5 15,0 0.5,-1.5 0,-2 0,-2 0,-2.5 -2.5,-4 -2.5,-4 5.5,-1.5 6,-11.5 -5,-15.5 -11,4 -10.5,14 -5,15.5 0,0 -2.5,1.5 -2.5,4 0,0 -0.5,0.5 0,2 z" />
      <path
         d="m 25,8 a 2.5,2.5 0 1 1 -5,0 2.5,2.5 0 1 1 5,0 z"
         id="path7"
         inkscape:original-d="m 25,8 a 2.5,2.5 0 1 1 -5,0 2.5,2.5 0 1 1 5,0 z" />
    </g>
    <path
       d="m 17.5,26 h 10 M 15,30 H 30 M 22.5,15.5 v 5 M 20,18 h 5"
       style="fill:none;stroke:#000000;stroke-linejoin:miter"
       id="path8"
       inkscape:original-d="m 17.5,26 h 10 M 15,30 H 30 M 22.5,15.5 v 5 M 20,18 h 5" />
  </g>
  <path
     style="fill:none;stroke:#ff0000;stroke-width:1.5000001;stroke-linecap:butt;stroke-linejoin:miter;stroke-opacity:1;stroke-dasharray:none"
     d="M 22.5,5.25 V 40.004462"
     id="path17" />
</svg>
