<?xml version="1.0" encoding="UTF-8" standalone="no"?>
<svg
   version="1.1"
   width="45"
   height="45"
   id="svg8"
   sodipodi:docname="white-queen-pawn.svg"
   inkscape:version="1.3.2 (091e20ef0f, 2023-11-25, custom)"
   xmlns:inkscape="http://www.inkscape.org/namespaces/inkscape"
   xmlns:sodipodi="http://sodipodi.sourceforge.net/DTD/sodipodi-0.dtd"
   xmlns="http://www.w3.org/2000/svg"
   xmlns:svg="http://www.w3.org/2000/svg">
  <defs
     id="defs8">
    <clipPath
       clipPathUnits="userSpaceOnUse"
       id="clipPath15">
      <rect
         style="fill:none;fill-rule:evenodd;stroke:#ff0000;stroke-width:1.5;stroke-linecap:square;stroke-linejoin:bevel"
         id="rect15"
         width="22.5"
         height="45"
         x="0"
         y="0" />
    </clipPath>
    <clipPath
       clipPathUnits="userSpaceOnUse"
       id="clipPath17">
      <rect
         style="fill:none;fill-rule:evenodd;stroke:#ff0000;stroke-width:1.5;stroke-linecap:square;stroke-linejoin:bevel"
         id="rect17"
         width="22.5"
         height="45"
         x="22.5"
         y="0" />
    </clipPath>
    <clipPath
       clipPathUnits="userSpaceOnUse"
       id="clipPath51">
      <rect
         style="fill:none;fill-rule:evenodd;stroke:#f20000;stroke-width:1.5;stroke-linecap:square;stroke-linejoin:bevel;stroke-dasharray:none;stroke-opacity:1"
         id="rect51"
         width="28.170233"
         height="53.482613"
         x="22.335115"
         y="-5.2838426" />
    </clipPath>
    <clipPath
       clipPathUnits="userSpaceOnUse"
       id="clipPath9">
      <rect
         style="display:block;fill:none;fill-rule:evenodd;stroke:#ff0000;stroke-width:1.5;stroke-linecap:square;stroke-linejoin:bevel"
         id="rect10"
         width="22.5"
         height="45"
         x="0"
         y="-0.60000002" />
    </clipPath>
    <inkscape:path-effect
       effect="powerclip"
       id="path-effect10"
       is_visible="true"
       lpeversion="1"
       inverse="true"
       flatten="false"
       hide_clip="false"
       message="Use fill-rule evenodd on &lt;b&gt;fill and stroke&lt;/b&gt; dialog if no flatten result after convert clip to paths." />
    <clipPath
       clipPathUnits="userSpaceOnUse"
       id="clipPath12">
      <rect
         style="fill:none;fill-rule:evenodd;stroke:#ff0000;stroke-width:1.5;stroke-linecap:square;stroke-linejoin:bevel"
         id="rect12"
         width="22.5"
         height="45"
         x="1.3825914"
         y="-0.30000001" />
    </clipPath>
    <clipPath
       clipPathUnits="userSpaceOnUse"
       id="clipPath4">
      <rect
         style="display:none;fill:none;fill-rule:evenodd;stroke:#ff0000;stroke-width:1.5;stroke-linecap:square;stroke-linejoin:bevel"
         id="rect4"
         width="22.5"
         height="45"
         x="0"
         y="0"
         d="M 0,0 H 22.5 V 45 H 0 Z" />
      <path
         id="lpe_path-effect4"
         style="fill:none;fill-rule:evenodd;stroke:#ff0000;stroke-width:1.5;stroke-linecap:square;stroke-linejoin:bevel"
         class="powerclip"
         d="m 5.25,3.25 h 34.5 v 42 H 5.25 Z M 0,0 V 45 H 22.5 V 0 Z" />
    </clipPath>
    <inkscape:path-effect
       effect="powerclip"
       id="path-effect4"
       is_visible="true"
       lpeversion="1"
       inverse="true"
       flatten="false"
       hide_clip="false"
       message="Use fill-rule evenodd on &lt;b&gt;fill and stroke&lt;/b&gt; dialog if no flatten result after convert clip to paths." />
  </defs>
  <sodipodi:namedview
     id="namedview8"
     pagecolor="#505050"
     bordercolor="#ffffff"
     borderopacity="1"
     inkscape:showpageshadow="0"
     inkscape:pageopacity="0"
     inkscape:pagecheckerboard="1"
     inkscape:deskcolor="#d1d1d1"
     inkscape:zoom="12.49222"
     inkscape:cx="14.929292"
     inkscape:cy="15.849865"
     inkscape:window-width="1600"
     inkscape:window-height="1172"
     inkscape:window-x="0"
     inkscape:window-y="0"
     inkscape:window-maximized="1"
     inkscape:current-layer="svg8" />
  <g
     style="fill:#ffffff;stroke:#000000;stroke-width:1.5;stroke-linejoin:round"
     id="left"
     clip-path="url(#clipPath15)">
    <path
       d="M 9,26 C 17.5,24.5 30,24.5 36,26 L 38.5,13.5 L 31,25 L 30.7,10.9 L 25.5,24.5 L 22.5,10 L 19.5,24.5 L 14.3,10.9 L 14,25 L 6.5,13.5 L 9,26 z"
       id="path1" />
    <path
       d="M 9,26 C 9,28 10.5,28 11.5,30 C 12.5,31.5 12.5,31 12,33.5 C 10.5,34.5 11,36 11,36 C 9.5,37.5 11,38.5 11,38.5 C 17.5,39.5 27.5,39.5 34,38.5 C 34,38.5 35.5,37.5 34,36 C 34,36 34.5,34.5 33,33.5 C 32.5,31 32.5,31.5 33.5,30 C 34.5,28 36,28 36,26 C 27.5,24.5 17.5,24.5 9,26 z"
       id="path2" />
    <path
       d="M 11.5,30 C 15,29 30,29 33.5,30"
       style="fill:none"
       id="path3" />
    <path
       d="M 12,33.5 C 18,32.5 27,32.5 33,33.5"
       style="fill:none"
       id="path4" />
    <circle
       cx="6"
       cy="12"
       r="2"
       id="circle4" />
    <circle
       cx="14"
       cy="9"
       r="2"
       id="circle5" />
    <circle
       cx="22.5"
       cy="8"
       r="2"
       id="circle6" />
    <circle
       cx="31"
       cy="9"
       r="2"
       id="circle7" />
    <circle
       cx="39"
       cy="12"
       r="2"
       id="circle8" />
  </g>
  <path
     d="m 22.5,9 c -2.21,0 -4,1.79 -4,4 0,0.89 0.29,1.71 0.78,2.38 C 17.33,16.5 16,18.59 16,21 c 0,2.03 0.94,3.84 2.41,5.03 C 15.41,27.09 11,31.58 11,39.5 H 34 C 34,31.58 29.59,27.09 26.59,26.03 28.06,24.84 29,23.03 29,21 29,18.59 27.67,16.5 25.72,15.38 26.21,14.71 26.5,13.89 26.5,13 c 0,-2.21 -1.79,-4 -4,-4 z"
     style="fill:#ffffff;fill-opacity:1;fill-rule:nonzero;stroke:#000000;stroke-width:1.5;stroke-linecap:round;stroke-linejoin:miter;stroke-miterlimit:4;stroke-dasharray:none;stroke-opacity:1"
     id="right"
     clip-path="url(#clipPath4)"
     inkscape:path-effect="#path-effect4"
     inkscape:original-d="m 22.5,9 c -2.21,0 -4,1.79 -4,4 0,0.89 0.29,1.71 0.78,2.38 C 17.33,16.5 16,18.59 16,21 c 0,2.03 0.94,3.84 2.41,5.03 C 15.41,27.09 11,31.58 11,39.5 H 34 C 34,31.58 29.59,27.09 26.59,26.03 28.06,24.84 29,23.03 29,21 29,18.59 27.67,16.5 25.72,15.38 26.21,14.71 26.5,13.89 26.5,13 c 0,-2.21 -1.79,-4 -4,-4 z" />
  <path
     style="fill:none;stroke:#ff0000;stroke-width:1.5000001;stroke-linecap:butt;stroke-linejoin:miter;stroke-opacity:1;stroke-dasharray:none"
     d="M 22.5,5.25 V 40.004462"
     id="path17" />
</svg>
